<svg width="24" height="24" viewBox="0 0 24 24" fill="none" xmlns="http://www.w3.org/2000/svg">
<path d="M17.611 21.1988C16.5222 22.2542 15.3335 22.0876 14.1892 21.5876C12.9782 21.0766 11.8672 21.0544 10.5896 21.5876C8.98982 22.2764 8.14549 22.0765 7.19005 21.1988C1.76851 15.6106 2.56841 7.10058 8.72319 6.78951C10.223 6.86727 11.2673 7.61162 12.145 7.67828C13.4559 7.41165 14.7113 6.64508 16.1111 6.74507C17.7887 6.87838 19.0552 7.54496 19.8884 8.74481C16.4222 10.8223 17.2443 15.3884 20.4217 16.666C19.7885 18.3325 18.9663 19.9878 17.5998 21.2099L17.611 21.1988ZM12.0339 6.72285C11.8672 4.24538 13.8781 2.2012 16.1889 2.00122C16.5111 4.86753 13.5892 7.00059 12.0339 6.72285Z" fill="black"/>
</svg>
