<svg width="125" height="17" viewBox="0 0 125 17" fill="none" xmlns="http://www.w3.org/2000/svg">
<path d="M4.36765 16.5315L0 0.262058H3.18838L6.61699 14.1293H5.78713L9.3686 0.262058H12.4478L16.0074 14.1293H15.1776L18.6062 0.262058H21.7946L17.4269 16.5315H14.0201L10.4168 3.03551H11.3777L7.77441 16.5315H4.36765Z" fill="#041330"/>
<path d="M27.9596 16.7936C26.7367 16.7936 25.6666 16.517 24.7494 15.9638C23.8322 15.4105 23.1188 14.6607 22.6092 13.7144C22.0997 12.7681 21.8449 11.7199 21.8449 10.5697C21.8449 9.37588 22.0997 8.32037 22.6092 7.40316C23.1333 6.4714 23.8395 5.73618 24.7275 5.1975C25.6302 4.65882 26.6347 4.38948 27.7412 4.38948C28.673 4.38948 29.4883 4.54235 30.1871 4.84809C30.9005 5.15382 31.5047 5.57603 31.9997 6.11471C32.4947 6.65338 32.8732 7.27213 33.1353 7.97096C33.3973 8.65522 33.5283 9.39772 33.5283 10.1985C33.5283 10.4023 33.5138 10.6134 33.4847 10.8318C33.4701 11.0501 33.4337 11.2394 33.3755 11.3996H24.2034V9.21574H31.7595L30.4055 10.2421C30.5365 9.57243 30.5001 8.97552 30.2963 8.4514C30.107 7.92728 29.7867 7.51235 29.3354 7.20662C28.8986 6.90088 28.3672 6.74802 27.7412 6.74802C27.1443 6.74802 26.6129 6.90088 26.147 7.20662C25.6811 7.49779 25.3245 7.93456 25.077 8.51691C24.844 9.08471 24.7567 9.77625 24.8149 10.5915C24.7567 11.3195 24.8513 11.9674 25.0988 12.5351C25.3608 13.0884 25.7394 13.5179 26.2344 13.8236C26.7439 14.1293 27.3263 14.2822 27.9814 14.2822C28.6366 14.2822 29.1898 14.1439 29.6411 13.8673C30.107 13.5907 30.471 13.2194 30.7331 12.7535L33.0479 13.8891C32.815 14.4569 32.451 14.9592 31.956 15.396C31.461 15.8327 30.8714 16.1749 30.1871 16.4224C29.5174 16.6699 28.7749 16.7936 27.9596 16.7936Z" fill="#041330"/>
<path d="M35.3694 16.5315V0H38.2302V16.5315H35.3694Z" fill="#041330"/>
<path d="M46.2657 16.7936C45.0864 16.7936 44.0236 16.5243 43.0773 15.9856C42.1455 15.4324 41.4103 14.6899 40.8716 13.7581C40.3329 12.8118 40.0636 11.749 40.0636 10.5697C40.0636 9.39044 40.3329 8.33493 40.8716 7.40316C41.4103 6.4714 42.1455 5.73618 43.0773 5.1975C44.0236 4.65882 45.0864 4.38948 46.2657 4.38948C47.1101 4.38948 47.8963 4.54235 48.6242 4.84809C49.3521 5.13926 49.9782 5.54691 50.5023 6.07103C51.041 6.58059 51.4268 7.19206 51.6597 7.90544L49.1483 8.99735C48.9299 8.40044 48.5587 7.92 48.0346 7.55603C47.525 7.19206 46.9354 7.01007 46.2657 7.01007C45.6396 7.01007 45.0791 7.16294 44.5841 7.46868C44.1037 7.77441 43.7251 8.19662 43.4485 8.73529C43.1719 9.27397 43.0336 9.89272 43.0336 10.5915C43.0336 11.2904 43.1719 11.9091 43.4485 12.4478C43.7251 12.9865 44.1037 13.4087 44.5841 13.7144C45.0791 14.0201 45.6396 14.173 46.2657 14.173C46.9499 14.173 47.5468 13.991 48.0564 13.6271C48.566 13.2631 48.9299 12.7754 49.1483 12.1639L51.6597 13.2995C51.4268 13.9692 51.0482 14.5734 50.5241 15.1121C50 15.6362 49.374 16.0511 48.646 16.3568C47.9181 16.648 47.1246 16.7936 46.2657 16.7936Z" fill="#041330"/>
<path d="M59.3118 16.7936C58.1471 16.7936 57.0843 16.5243 56.1234 15.9856C55.1771 15.4469 54.42 14.7117 53.8522 13.7799C53.299 12.8482 53.0224 11.7854 53.0224 10.5915C53.0224 9.39772 53.299 8.33493 53.8522 7.40316C54.42 6.4714 55.1771 5.73618 56.1234 5.1975C57.0697 4.65882 58.1325 4.38948 59.3118 4.38948C60.4765 4.38948 61.532 4.65882 62.4783 5.1975C63.4247 5.73618 64.1744 6.4714 64.7277 7.40316C65.2955 8.32037 65.5794 9.38316 65.5794 10.5915C65.5794 11.7854 65.2955 12.8482 64.7277 13.7799C64.1599 14.7117 63.4028 15.4469 62.4565 15.9856C61.5102 16.5243 60.4619 16.7936 59.3118 16.7936ZM59.3118 14.173C59.9524 14.173 60.5129 14.0201 60.9933 13.7144C61.4883 13.4087 61.8742 12.9865 62.1508 12.4478C62.4419 11.8946 62.5875 11.2758 62.5875 10.5915C62.5875 9.89272 62.4419 9.28125 62.1508 8.75713C61.8742 8.21846 61.4883 7.79625 60.9933 7.49051C60.5129 7.17022 59.9524 7.01007 59.3118 7.01007C58.6566 7.01007 58.0816 7.17022 57.5866 7.49051C57.0916 7.79625 56.6985 8.21846 56.4073 8.75713C56.1307 9.28125 55.9924 9.89272 55.9924 10.5915C55.9924 11.2758 56.1307 11.8946 56.4073 12.4478C56.6985 12.9865 57.0916 13.4087 57.5866 13.7144C58.0816 14.0201 58.6566 14.173 59.3118 14.173Z" fill="#041330"/>
<path d="M67.4213 16.5315V4.65154H70.1074V7.40316L69.8017 6.94456C70.02 6.08559 70.4568 5.445 71.1119 5.02279C71.7671 4.60059 72.5387 4.38948 73.4268 4.38948C74.4022 4.38948 75.2612 4.64426 76.0037 5.15382C76.7462 5.66338 77.2267 6.33309 77.445 7.16294L76.637 7.22846C77.001 6.28213 77.547 5.57603 78.2749 5.11015C79.0028 4.62971 79.84 4.38948 80.7863 4.38948C81.6307 4.38948 82.3805 4.57875 83.0356 4.95728C83.7053 5.33581 84.2294 5.86721 84.608 6.55147C84.9865 7.22118 85.1758 8.00007 85.1758 8.88816V16.5315H82.315V9.56515C82.315 9.04103 82.2203 8.58971 82.0311 8.21118C81.8418 7.83265 81.5797 7.54147 81.2449 7.33765C80.91 7.11926 80.5024 7.01007 80.0219 7.01007C79.5706 7.01007 79.1703 7.11926 78.8208 7.33765C78.4714 7.54147 78.2021 7.83265 78.0128 8.21118C77.8236 8.58971 77.7289 9.04103 77.7289 9.56515V16.5315H74.8681V9.56515C74.8681 9.04103 74.7735 8.58971 74.5842 8.21118C74.395 7.83265 74.1256 7.54147 73.7762 7.33765C73.4414 7.11926 73.041 7.01007 72.5751 7.01007C72.1238 7.01007 71.7234 7.11926 71.374 7.33765C71.0246 7.54147 70.7553 7.83265 70.566 8.21118C70.3767 8.58971 70.2821 9.04103 70.2821 9.56515V16.5315H67.4213Z" fill="#041330"/>
<path d="M92.9028 16.7936C91.6798 16.7936 90.6097 16.517 89.6925 15.9638C88.7753 15.4105 88.0619 14.6607 87.5524 13.7144C87.0428 12.7681 86.788 11.7199 86.788 10.5697C86.788 9.37588 87.0428 8.32037 87.5524 7.40316C88.0765 6.4714 88.7826 5.73618 89.6707 5.1975C90.5733 4.65882 91.5779 4.38948 92.6844 4.38948C93.6161 4.38948 94.4314 4.54235 95.1302 4.84809C95.8436 5.15382 96.4478 5.57603 96.9428 6.11471C97.4378 6.65338 97.8164 7.27213 98.0784 7.97096C98.3405 8.65522 98.4715 9.39772 98.4715 10.1985C98.4715 10.4023 98.4569 10.6134 98.4278 10.8318C98.4133 11.0501 98.3769 11.2394 98.3186 11.3996H89.1466V9.21574H96.7026L95.3486 10.2421C95.4797 9.57243 95.4433 8.97552 95.2394 8.4514C95.0502 7.92728 94.7299 7.51235 94.2786 7.20662C93.8418 6.90088 93.3104 6.74802 92.6844 6.74802C92.0875 6.74802 91.5561 6.90088 91.0902 7.20662C90.6243 7.49779 90.2676 7.93456 90.0201 8.51691C89.7872 9.08471 89.6998 9.77625 89.758 10.5915C89.6998 11.3195 89.7944 11.9674 90.0419 12.5351C90.304 13.0884 90.6825 13.5179 91.1775 13.8236C91.6871 14.1293 92.2694 14.2822 92.9246 14.2822C93.5797 14.2822 94.133 14.1439 94.5843 13.8673C95.0502 13.5907 95.4141 13.2194 95.6762 12.7535L97.9911 13.8891C97.7581 14.4569 97.3941 14.9592 96.8991 15.396C96.4041 15.8327 95.8145 16.1749 95.1302 16.4224C94.4605 16.6699 93.7181 16.7936 92.9028 16.7936Z" fill="#041330"/>
<path d="M109.282 16.6626C107.943 16.6626 106.902 16.2986 106.159 15.5707C105.431 14.8282 105.068 13.7872 105.068 12.4478V7.20662H103.015V4.65154H103.233C103.815 4.65154 104.267 4.49868 104.587 4.19294C104.907 3.88721 105.068 3.44316 105.068 2.86081V1.9436H107.928V4.65154H110.658V7.20662H107.928V12.2949C107.928 12.688 107.994 13.0229 108.125 13.2995C108.27 13.5761 108.489 13.7872 108.78 13.9328C109.086 14.0784 109.472 14.1512 109.937 14.1512C110.039 14.1512 110.156 14.1439 110.287 14.1293C110.432 14.1148 110.571 14.1002 110.702 14.0857V16.5315C110.498 16.5607 110.265 16.5898 110.003 16.6189C109.741 16.648 109.501 16.6626 109.282 16.6626Z" fill="#041330"/>
<path d="M118.262 16.7936C117.098 16.7936 116.035 16.5243 115.074 15.9856C114.128 15.4469 113.37 14.7117 112.803 13.7799C112.249 12.8482 111.973 11.7854 111.973 10.5915C111.973 9.39772 112.249 8.33493 112.803 7.40316C113.37 6.4714 114.128 5.73618 115.074 5.1975C116.02 4.65882 117.083 4.38948 118.262 4.38948C119.427 4.38948 120.482 4.65882 121.429 5.1975C122.375 5.73618 123.125 6.4714 123.678 7.40316C124.246 8.32037 124.53 9.38316 124.53 10.5915C124.53 11.7854 124.246 12.8482 123.678 13.7799C123.11 14.7117 122.353 15.4469 121.407 15.9856C120.461 16.5243 119.412 16.7936 118.262 16.7936ZM118.262 14.173C118.903 14.173 119.463 14.0201 119.944 13.7144C120.439 13.4087 120.825 12.9865 121.101 12.4478C121.392 11.8946 121.538 11.2758 121.538 10.5915C121.538 9.89272 121.392 9.28125 121.101 8.75713C120.825 8.21846 120.439 7.79625 119.944 7.49051C119.463 7.17022 118.903 7.01007 118.262 7.01007C117.607 7.01007 117.032 7.17022 116.537 7.49051C116.042 7.79625 115.649 8.21846 115.358 8.75713C115.081 9.28125 114.943 9.89272 114.943 10.5915C114.943 11.2758 115.081 11.8946 115.358 12.4478C115.649 12.9865 116.042 13.4087 116.537 13.7144C117.032 14.0201 117.607 14.173 118.262 14.173Z" fill="#041330"/>
</svg>
